<?xml version="1.0" encoding="UTF-8"?>
<svg width="800" height="600" xmlns="http://www.w3.org/2000/svg">
  <defs>
    <!-- Gradients and filters -->
    <linearGradient id="bgGrad" x1="0%" y1="0%" x2="0%" y2="100%">
      <stop offset="0%" stop-color="#f8f9fa"/>
      <stop offset="100%" stop-color="#e9ecef"/>
    </linearGradient>
    
    <filter id="shadow">
      <feDropShadow dx="2" dy="2" stdDeviation="1" flood-opacity="0.3"/>
    </filter>
    
    <filter id="glow">
      <feGaussianBlur stdDeviation="2" result="coloredBlur"/>
      <feMerge>
        <feMergeNode in="coloredBlur"/>
        <feMergeNode in="SourceGraphic"/>
      </feMerge>
    </filter>
  </defs>
  
  <!-- Background -->
  <rect width="800" height="600" fill="url(#bgGrad)"/>
  
  <!-- Plot area background -->
  <rect x="100" y="80" width="600" height="420" 
        fill="#ffffff" stroke="#dee2e6" stroke-width="1" filter="url(#shadow)"/>
  
  <!-- Grid lines -->
  <g stroke="#e9ecef" stroke-width="1" opacity="0.7">
    <line x1="100" y1="500.0" x2="700" y2="500.0"/>
    <line x1="100" y1="395.0" x2="700" y2="395.0"/>
    <line x1="100" y1="290.0" x2="700" y2="290.0"/>
    <line x1="100" y1="185.0" x2="700" y2="185.0"/>
    <line x1="100" y1="80.0" x2="700" y2="80.0"/>
    <line x1="100.0" y1="80" x2="100.0" y2="500"/>
    <line x1="219.99999999999994" y1="80" x2="219.99999999999994" y2="500"/>
    <line x1="339.99999999999994" y1="80" x2="339.99999999999994" y2="500"/>
    <line x1="460.0" y1="80" x2="460.0" y2="500"/>
    <line x1="580.0" y1="80" x2="580.0" y2="500"/>
    <line x1="700.0" y1="80" x2="700.0" y2="500"/>
  </g>
  
  <!-- Axes -->
  <g stroke="#495057" stroke-width="2" fill="none">
    <line x1="100" y1="80" x2="100" y2="500"/>
    <line x1="100" y1="500" x2="700" y2="500"/>
  </g>
  
  <!-- Error bars -->
  <g stroke="#6c757d" stroke-width="2" fill="none">
    <line x1="100.0" y1="480.2369258344594" x2="100.0" y2="455.7847371637062"/>
    <!-- Error bar caps -->
    <line x1="95.0" y1="455.7847371637062" x2="105.0" y2="455.7847371637062"/>
    <line x1="95.0" y1="480.2369258344594" x2="105.0" y2="480.2369258344594"/>
    <line x1="219.99999999999994" y1="409.8631403796112" x2="219.99999999999994" y2="389.2060054254931"/>
    <!-- Error bar caps -->
    <line x1="214.99999999999994" y1="389.2060054254931" x2="224.99999999999994" y2="389.2060054254931"/>
    <line x1="214.99999999999994" y1="409.8631403796112" x2="224.99999999999994" y2="409.8631403796112"/>
    <line x1="339.99999999999994" y1="309.62710229793197" x2="339.99999999999994" y2="284.9227859802613"/>
    <!-- Error bar caps -->
    <line x1="334.99999999999994" y1="284.9227859802613" x2="344.99999999999994" y2="284.9227859802613"/>
    <line x1="334.99999999999994" y1="309.62710229793197" x2="344.99999999999994" y2="309.62710229793197"/>
    <line x1="460.0" y1="303.03527328405005" x2="460.0" y2="284.20868898544717"/>
    <!-- Error bar caps -->
    <line x1="455.0" y1="284.20868898544717" x2="465.0" y2="284.20868898544717"/>
    <line x1="455.0" y1="303.03527328405005" x2="465.0" y2="303.03527328405005"/>
    <line x1="580.0" y1="123.66830806197612" x2="580.0" y2="100.31002893985828"/>
    <!-- Error bar caps -->
    <line x1="575.0" y1="100.31002893985828" x2="585.0" y2="100.31002893985828"/>
    <line x1="575.0" y1="123.66830806197612" x2="585.0" y2="123.66830806197612"/>
    <line x1="700.0" y1="121.70098878127692" x2="700.0" y2="105.28412393699381"/>
    <!-- Error bar caps -->
    <line x1="695.0" y1="105.28412393699381" x2="705.0" y2="105.28412393699381"/>
    <line x1="695.0" y1="121.70098878127692" x2="705.0" y2="121.70098878127692"/>
  </g>
  
  <!-- Data points -->
  <polyline points="100.0,468.0108314990828 219.99999999999994,399.53457290255216 339.99999999999994,297.27494413909665 460.0,293.6219811347486 580.0,111.98916850091723 700.0,113.49255635913539 " fill="none" stroke="#0066cc" stroke-width="3" opacity="0.7"/>
  
  <!-- Data point circles -->
  <g>
    <circle cx="100.0" cy="468.0108314990828" r="6" fill="#0066cc" stroke="#ffffff" stroke-width="2" filter="url(#shadow)"/>
    <circle cx="219.99999999999994" cy="399.53457290255216" r="6" fill="#0066cc" stroke="#ffffff" stroke-width="2" filter="url(#shadow)"/>
    <circle cx="339.99999999999994" cy="297.27494413909665" r="6" fill="#0066cc" stroke="#ffffff" stroke-width="2" filter="url(#shadow)"/>
    <circle cx="460.0" cy="293.6219811347486" r="6" fill="#0066cc" stroke="#ffffff" stroke-width="2" filter="url(#shadow)"/>
    <circle cx="580.0" cy="111.98916850091723" r="6" fill="#0066cc" stroke="#ffffff" stroke-width="2" filter="url(#shadow)"/>
    <circle cx="700.0" cy="113.49255635913539" r="6" fill="#0066cc" stroke="#ffffff" stroke-width="2" filter="url(#shadow)"/>
  </g>
  
  <!-- Axis labels -->
  <g font-family="Arial, sans-serif" font-size="12" fill="#495057" text-anchor="middle">
    <text x="85" y="504.0" text-anchor="end">0.95</text>
    <text x="85" y="399.0" text-anchor="end">1.48</text>
    <text x="85" y="294.0" text-anchor="end">2.02</text>
    <text x="85" y="189.0" text-anchor="end">2.55</text>
    <text x="85" y="84.0" text-anchor="end">3.09</text>
    <text x="100.0" y="525">32</text>
    <text x="219.99999999999994" y="525">64</text>
    <text x="339.99999999999994" y="525">128</text>
    <text x="460.0" y="525">256</text>
    <text x="580.0" y="525">512</text>
    <text x="700.0" y="525">1024</text>
  </g>
  
  <!-- Axis titles -->
  <g font-family="Arial, sans-serif" font-size="16" font-weight="bold" fill="#212529">
    <!-- X-axis title -->
    <text x="400" y="550" text-anchor="middle">Batch Size (B)</text>
    
    <!-- Y-axis title (rotated) -->
    <text x="30" y="320" text-anchor="middle" transform="rotate(-90 30 320)">Mean Per-Sequence Entropy</text>
  </g>
  
  <!-- Title -->
  <g font-family="Arial, sans-serif" text-anchor="middle">
    <text x="400" y="35" font-size="20" font-weight="bold" fill="#212529" filter="url(#shadow)">
      Jackknife Entropy Variance: Batch Size Analysis
    </text>
    <text x="400" y="55" font-size="14" fill="#6c757d">
      GSM8K R1 Template • Qwen2.5-1.5B • Step 40 Checkpoint • G=8
    </text>
  </g>
  
  <!-- Legend/Stats box -->
  <g>
    <rect x="620" y="120" width="160" height="140" fill="#ffffff" stroke="#dee2e6" stroke-width="1" rx="5" filter="url(#shadow)"/>
    <text x="700" y="140" font-family="Arial, sans-serif" font-size="14" font-weight="bold" fill="#212529" text-anchor="middle">
      Statistics
    </text>
    <text x="630" y="160" font-family="Arial, sans-serif" font-size="11" fill="#495057">
      Min: 1.110
    </text>
    <text x="630" y="175" font-family="Arial, sans-serif" font-size="11" fill="#495057">
      Max: 2.923
    </text>
    <text x="630" y="190" font-family="Arial, sans-serif" font-size="11" fill="#495057">
      Range: 1.813
    </text>
    <text x="630" y="205" font-family="Arial, sans-serif" font-size="11" fill="#495057">
      Avg Std: 0.0545
    </text>
    <text x="630" y="225" font-family="Arial, sans-serif" font-size="11" fill="#495057">
      Total Sequences: 16128
    </text>
    <text x="630" y="240" font-family="Arial, sans-serif" font-size="11" fill="#495057">
      Duration: 27.3 min
    </text>
  </g>
  
  <!-- Watermark -->
  <text x="750" y="580" font-family="Arial, sans-serif" font-size="10" fill="#adb5bd" text-anchor="end">
    Generated by Lord Krang's RL Laboratory
  </text>
</svg>